<svg xmlns="http://www.w3.org/2000/svg" height="20" width="17.5" viewBox="0 0 448 512"><!--!Font Awesome Free 6.6.0 by @fontawesome - https://fontawesome.com License - https://fontawesome.com/license/free Copyright 2024 Fonticons, Inc.--><path fill="#3daa25" d="M448 358.4V25.6c0-16-9.6-25.6-25.6-25.6H96C41.6 0 0 41.6 0 96v320c0 54.4 41.6 96 96 96h326.4c12.8 0 25.6-9.6 25.6-25.6v-16c0-6.4-3.2-12.8-9.6-19.2-3.2-16-3.2-60.8 0-73.6 6.4-3.2 9.6-9.6 9.6-19.2zM301.1 145.8c.6-1.2 1.8-1.8 2.9-1.8s2.3 .6 2.9 1.8l11.2 22.7 25 3.6c2.7 .4 3.7 3.7 1.8 5.6l-18.1 17.6 4.3 24.9c.4 2.1-1.3 3.8-3.2 3.8-.5 0-1-.1-1.5-.4L304 211.9l-22.4 11.8c-.5 .3-1 .4-1.5 .4-1.9 0-3.6-1.7-3.2-3.8l4.3-24.9-18.1-17.6c-1.9-1.9-.9-5.2 1.8-5.6l25-3.6 11.2-22.7zm-57.9-69c13.7 0 27.3 2.5 40.4 7.4a6.8 6.8 0 1 1 -2.4 13.1c-.7 0-3.1-.2-4.1-.2-52.3 0-94.9 42.6-94.9 94.9 0 52.3 42.6 94.9 94.9 94.9 1 0 3.5-.2 4.1-.2 3.9 0 6.8 3.1 6.8 6.8 0 3-1.9 5.5-4.6 6.4-13.1 4.9-26.6 7.3-40.2 7.3C179.7 307.2 128 255.5 128 192c0-63.5 51.7-115.2 115.2-115.2zM380.8 448H96c-19.2 0-32-12.8-32-32s16-32 32-32h284.8v64z"/></svg>